<svg xmlns="http://www.w3.org/2000/svg" version="1.1" xmlns:xlink="http://www.w3.org/1999/xlink" xmlns:svgjs="http://svgjs.com/svgjs" width="1440" height="560" preserveAspectRatio="none" viewBox="0 0 1440 560"><g mask="url(&quot;#SvgjsMask1107&quot;)" fill="none"><rect width="1440" height="560" x="0" y="0" fill="rgba(37, 70, 125, 1)"></rect><path d="M1512 560L0 560 L0 325.77Q71.2 276.97, 120 348.16Q130.32 286.49, 192 296.81Q234.69 267.5, 264 310.2Q338.56 264.76, 384 339.32Q461.39 296.71, 504 374.1Q526.33 276.43, 624 298.76Q695.21 249.97, 744 321.17Q797.6 302.77, 816 356.37Q846.21 266.57, 936 296.78Q1007.49 248.26, 1056 319.75Q1124.54 268.29, 1176 336.84Q1190.67 279.51, 1248 294.18Q1318.37 244.55, 1368 314.91Q1412.09 287, 1440 331.08Q1496.8 315.88, 1512 372.68z" fill="#182f5d"></path><path d="M1464 560L0 560 L0 352.64Q71.96 304.6, 120 376.56Q169.12 353.68, 192 402.8Q249.35 388.15, 264 445.51Q284.48 393.99, 336 414.46Q379.74 338.2, 456 381.94Q524.02 329.96, 576 397.98Q612.02 314, 696 350.02Q750.65 332.67, 768 387.33Q848.19 347.52, 888 427.72Q896.25 363.97, 960 372.22Q1012.71 304.93, 1080 357.64Q1142.03 347.67, 1152 409.71Q1229.38 367.09, 1272 444.47Q1309.26 361.73, 1392 398.99Q1407.09 342.08, 1464 357.17z" fill="#25467d"></path><path d="M1488 560L0 560 L0 483.46Q40.88 404.33, 120 445.21Q191.55 396.75, 240 468.3Q321.91 430.21, 360 512.12Q367.29 447.41, 432 454.71Q462.31 413.01, 504 443.32Q597.13 416.45, 624 509.58Q640.65 454.24, 696 470.89Q740.6 443.49, 768 488.09Q786.94 435.03, 840 453.98Q861.95 403.93, 912 425.88Q980.74 374.62, 1032 443.35Q1086.13 425.48, 1104 479.6Q1158.57 462.17, 1176 516.73Q1228.48 449.21, 1296 501.69Q1346.63 432.32, 1416 482.96Q1434.56 429.51, 1488 448.07z" fill="#356cb1"></path><path d="M1464 560L0 560 L0 522.99Q41.82 492.81, 72 534.62Q147.3 489.92, 192 565.23Q259.79 513.02, 312 580.81Q314.66 511.47, 384 514.14Q408.25 466.39, 456 490.65Q511.31 473.96, 528 529.27Q550.18 479.45, 600 501.64Q630.35 459.99, 672 490.34Q729.84 476.18, 744 534.03Q796.32 514.35, 816 566.66Q870.83 501.49, 936 556.32Q956.34 504.66, 1008 525Q1028.27 473.27, 1080 493.54Q1122.33 463.87, 1152 506.19Q1233.63 467.83, 1272 549.46Q1319.57 525.03, 1344 572.6Q1371.33 479.93, 1464 507.26z" fill="white"></path></g><defs><mask id="SvgjsMask1107"><rect width="1440" height="560" fill="#ffffff"></rect></mask></defs></svg>